<svg xmlns="http://www.w3.org/2000/svg" viewBox="0 0 600 420" width="600" height="420">
<defs>
<linearGradient id="bgc" x1="0" y1="0" x2="1" y2="1">
<stop offset="0" stop-color="#101012"/>
<stop offset="1" stop-color="#17191b"/>
</linearGradient>
<pattern id="grid" width="30" height="30" patternUnits="userSpaceOnUse">
<path d="M30 0 L0 0 0 30" fill="none" stroke="#242628" stroke-width="1"/>
</pattern>
</defs>
<rect width="600" height="420" fill="url(#bgc)"/>
<rect width="600" height="420" fill="url(#grid)"/>
<g fill="none" stroke="#9fb8c9" stroke-width="2.5">
<circle cx="300" cy="210" r="80"/>
<circle cx="300" cy="210" r="40"/>
</g>
<g fill="#9fb8c9"><rect x="-8" y="-100" width="16" height="26" fill="#9fb8c9" transform="rotate(0.0 300 210) translate(300 210)"/><rect x="-8" y="-100" width="16" height="26" fill="#9fb8c9" transform="rotate(30.0 300 210) translate(300 210)"/><rect x="-8" y="-100" width="16" height="26" fill="#9fb8c9" transform="rotate(60.0 300 210) translate(300 210)"/><rect x="-8" y="-100" width="16" height="26" fill="#9fb8c9" transform="rotate(90.0 300 210) translate(300 210)"/><rect x="-8" y="-100" width="16" height="26" fill="#9fb8c9" transform="rotate(120.0 300 210) translate(300 210)"/><rect x="-8" y="-100" width="16" height="26" fill="#9fb8c9" transform="rotate(150.0 300 210) translate(300 210)"/><rect x="-8" y="-100" width="16" height="26" fill="#9fb8c9" transform="rotate(180.0 300 210) translate(300 210)"/><rect x="-8" y="-100" width="16" height="26" fill="#9fb8c9" transform="rotate(210.0 300 210) translate(300 210)"/><rect x="-8" y="-100" width="16" height="26" fill="#9fb8c9" transform="rotate(240.0 300 210) translate(300 210)"/><rect x="-8" y="-100" width="16" height="26" fill="#9fb8c9" transform="rotate(270.0 300 210) translate(300 210)"/><rect x="-8" y="-100" width="16" height="26" fill="#9fb8c9" transform="rotate(300.0 300 210) translate(300 210)"/><rect x="-8" y="-100" width="16" height="26" fill="#9fb8c9" transform="rotate(330.0 300 210) translate(300 210)"/></g>
<text x="300" y="400" text-anchor="middle" font-family="Helvetica, Arial, sans-serif" font-size="11" fill="#8a8f93" letter-spacing="2">ENGRANAJE REDUCTOR · VISTA PREVIA</text>
</svg>